<svg viewBox="0 0 400 560" xmlns="http://www.w3.org/2000/svg" font-family="'Microsoft JhengHei','Noto Sans TC',sans-serif">
<rect x="0" y="0" width="400" height="560" fill="#f0ece0"/>
<text x="26" y="46" font-size="30" font-weight="700" fill="#181818">雷射剪刀</text><line x1="22" y1="60" x2="378" y2="60" stroke="#181818" stroke-width="2.5"/><circle cx="358" cy="34" r="22" fill="#f0ece0" stroke="#181818" stroke-width="3"/><polygon points="358.0,18.2 360.4,26.5 367.3,21.2 364.4,29.3 373.1,29.1 365.9,34.0 373.1,38.9 364.4,38.7 367.3,46.8 360.4,41.5 358.0,49.8 355.6,41.5 348.7,46.8 351.6,38.7 342.9,38.9 350.1,34.0 342.9,29.1 351.6,29.3 348.7,21.2 355.6,26.5" fill="#181818" stroke="none" stroke-width="0" /><rect x="20" y="76" width="360" height="300" fill="#ffffff" stroke="#181818" stroke-width="2"/><g transform="translate(200,226)"><g transform="scale(0.92)"><path d="M-4,-4 L80,-46" stroke="#181818" stroke-width="11" fill="none"/><path d="M-4,4 L80,46" stroke="#181818" stroke-width="11" fill="none"/><circle cx="78" cy="-46" r="26" fill="none" stroke="#181818" stroke-width="9"/><circle cx="78" cy="46" r="26" fill="none" stroke="#181818" stroke-width="9"/><polygon points="-8.0,-8.0 -100.0,-78.0 -118.0,-66.0 -32.0,8.0" fill="#181818" stroke="none" stroke-width="0" /><polygon points="-8.0,8.0 -100.0,78.0 -118.0,66.0 -32.0,-8.0" fill="#181818" stroke="none" stroke-width="0" /><circle cx="-4" cy="0" r="8" fill="#ffffff" stroke="#181818" stroke-width="4"/></g><line x1="-118" y1="-60" x2="-155" y2="-69" stroke="#181818" stroke-width="3"/><line x1="-118" y1="-34" x2="-155" y2="-39" stroke="#181818" stroke-width="3"/><line x1="-118" y1="34" x2="-155" y2="39" stroke="#181818" stroke-width="3"/><line x1="-118" y1="60" x2="-155" y2="69" stroke="#181818" stroke-width="3"/><polygon points="-140.0,-18.0 -136.6,-8.3 -127.3,-12.7 -131.7,-3.4 -122.0,0.0 -131.7,3.4 -127.3,12.7 -136.6,8.3 -140.0,18.0 -143.4,8.3 -152.7,12.7 -148.3,3.4 -158.0,0.0 -148.3,-3.4 -152.7,-12.7 -143.4,-8.3" fill="#181818" stroke="none" stroke-width="0" /></g><line x1="20" y1="392" x2="380" y2="392" stroke="#181818" stroke-width="2.5"/><text x="26" y="418" font-size="16" font-weight="700" fill="#181818">效果</text><text x="26" y="444" font-size="15.5" font-weight="400" fill="#181818">①:本回合出示的星星為「剪刀」時可以發動,使其升級為</text><text x="26" y="467" font-size="15.5" font-weight="400" fill="#181818">雷射剪刀(贏 剪刀/布/鈦合金布,平 石頭,輸 殞石</text><text x="26" y="490" font-size="15.5" font-weight="400" fill="#181818">頭)。種類不符時,此卡直接返回手牌。</text>
<rect x="6" y="6" width="388" height="548" rx="14" fill="none" stroke="#181818" stroke-width="7"/>
</svg>